# xmcd
#
# Track frame offsets:
#	150
#	18937
#	38484
#	62336
#	93350
#	116644
#	138323
#	158500
#	190488
#	221390
#	251954
#	279067
#	304569
#
# Disc length: 4428 seconds
#
# Revision: 1
# Processed by: cddbd v1.5.2PL0 Copyright (c) Steve Scherf et al.
# Submitted via: audiograbber 1.83.01
#
DISCID=a1114a0d
DTITLE=Various Artist - Boogie Times - The Great Collectors - Funky Music - Vol.7
DYEAR=2007
DGENRE=Funk
TTITLE0=Quietfire - You Make Me Wanna Shout
TTITLE1=Tranzit - Missing You
TTITLE2=Terry Gengis - Gonna Be There
TTITLE3=Universe - Every Single Night
TTITLE4=Ernesta Dunbar - Checking Out
TTITLE5=Caprice - Candy Man
TTITLE6=Chime - Love Come Back
TTITLE7=Risse - Give It Up, Shake It Down
TTITLE8=Roadway - Let's Go For It
TTITLE9=Wizard - It's On
TTITLE10=Roy Hamilton and Capiche - Turn It Up
TTITLE11=Design - I Want You, I Need You
TTITLE12=Yvonne Verly - What Do You Feel
EXTD=
EXTT0=
EXTT1=
EXTT2=
EXTT3=
EXTT4=
EXTT5=
EXTT6=
EXTT7=
EXTT8=
EXTT9=
EXTT10=
EXTT11=
EXTT12=
PLAYORDER=
